STARTFONT 2.1
FONT -FontForge-Consolas-Book-R-Normal--24-240-75-75-P-123-ISO10646-1
SIZE 24 75 75
FONTBOUNDINGBOX 12 17 1 0
COMMENT "Generated by fontforge, http://fontforge.sourceforge.net"
COMMENT "(c) 2018 Microsoft Corporation. All rights reserved."
STARTPROPERTIES 37
FOUNDRY "FontForge"
FAMILY_NAME "Consolas"
WEIGHT_NAME "Book"
SLANT "R"
SETWIDTH_NAME "Normal"
ADD_STYLE_NAME ""
PIXEL_SIZE 24
POINT_SIZE 240
RESOLUTION_X 75
RESOLUTION_Y 75
SPACING "P"
AVERAGE_WIDTH 123
CHARSET_REGISTRY "ISO10646"
CHARSET_ENCODING "1"
FONTNAME_REGISTRY ""
CHARSET_COLLECTIONS "ISO10646-1"
FONT_NAME "Consolas"
FACE_NAME "Consolas"
COPYRIGHT "(c) 2018 Microsoft Corporation. All rights reserved."
FONT_VERSION "7.00"
FONT_ASCENT 18
FONT_DESCENT 6
UNDERLINE_POSITION -4
UNDERLINE_THICKNESS 2
RAW_ASCENT 742
RAW_DESCENT 257
NORM_SPACE 13
RELATIVE_WEIGHT 40
RELATIVE_SETWIDTH 50
SUPERSCRIPT_X 0
SUPERSCRIPT_Y 11
SUPERSCRIPT_SIZE 15
SUBSCRIPT_X 0
SUBSCRIPT_Y 3
SUBSCRIPT_SIZE 15
FIGURE_WIDTH 13
AVG_UPPERCASE_WIDTH 130
ENDPROPERTIES
CHARS 21
STARTCHAR uni0000
ENCODING 0
SWIDTH 549 0
DWIDTH 13 0
BBX 1 1 0 0
BITMAP
00
ENDCHAR
STARTCHAR uni000D
ENCODING 13
SWIDTH 0 0
DWIDTH 0 0
BBX 1 1 0 0
BITMAP
00
ENDCHAR
STARTCHAR space
ENCODING 32
SWIDTH 549 0
DWIDTH 13 0
BBX 1 1 0 0
BITMAP
00
ENDCHAR
STARTCHAR period
ENCODING 46
SWIDTH 549 0
DWIDTH 13 0
BBX 4 4 5 0
BITMAP
60
F0
F0
60
ENDCHAR
STARTCHAR zero
ENCODING 48
SWIDTH 549 0
DWIDTH 13 0
BBX 11 15 1 0
BITMAP
1F00
3F80
71C0
60C0
C0E0
C1E0
C760
CE60
DC60
F060
E060
60C0
71C0
3F80
1F00
ENDCHAR
STARTCHAR one
ENCODING 49
SWIDTH 549 0
DWIDTH 13 0
BBX 10 15 2 0
BITMAP
1C00
7C00
EC00
CC00
0C00
0C00
0C00
0C00
0C00
0C00
0C00
0C00
0C00
FFC0
FFC0
ENDCHAR
STARTCHAR two
ENCODING 50
SWIDTH 549 0
DWIDTH 13 0
BBX 10 15 2 0
BITMAP
3E00
7F00
E380
4180
0180
0180
0380
0300
0600
0C00
1800
3000
6000
FFC0
FFC0
ENDCHAR
STARTCHAR three
ENCODING 51
SWIDTH 549 0
DWIDTH 13 0
BBX 9 15 2 0
BITMAP
7C00
FE00
8700
0300
0300
0600
3C00
3F00
0380
0180
0180
0180
0300
FF00
FC00
ENDCHAR
STARTCHAR four
ENCODING 52
SWIDTH 549 0
DWIDTH 13 0
BBX 12 15 1 0
BITMAP
0380
0780
0780
0D80
1980
1980
3180
3180
6180
C180
FFF0
FFF0
0180
0180
0180
ENDCHAR
STARTCHAR five
ENCODING 53
SWIDTH 549 0
DWIDTH 13 0
BBX 9 15 2 0
BITMAP
FF00
FF00
C000
C000
C000
C000
FE00
FF00
0380
0180
0180
0180
0300
FE00
FC00
ENDCHAR
STARTCHAR six
ENCODING 54
SWIDTH 549 0
DWIDTH 13 0
BBX 10 15 1 0
BITMAP
0F80
3F80
3800
6000
4000
C000
DF00
FF80
E1C0
C0C0
C0C0
C0C0
6180
7F80
1E00
ENDCHAR
STARTCHAR seven
ENCODING 55
SWIDTH 549 0
DWIDTH 13 0
BBX 10 15 1 0
BITMAP
FFC0
FFC0
00C0
0180
0180
0300
0300
0600
0600
0C00
0C00
1800
1800
3800
3000
ENDCHAR
STARTCHAR eight
ENCODING 56
SWIDTH 549 0
DWIDTH 13 0
BBX 10 15 1 0
BITMAP
3F00
7F80
E1C0
C0C0
C0C0
7380
3F00
3F00
7380
E1C0
C0C0
C0C0
E1C0
7F80
3F00
ENDCHAR
STARTCHAR nine
ENCODING 57
SWIDTH 549 0
DWIDTH 13 0
BBX 10 15 1 0
BITMAP
1E00
7F80
6180
C0C0
C0C0
C0C0
E1C0
7FC0
3EC0
00C0
0180
0180
0700
7F00
7C00
ENDCHAR
STARTCHAR less
ENCODING 60
SWIDTH 549 0
DWIDTH 13 0
BBX 9 13 2 0
BITMAP
0100
0380
0700
0C00
3800
7000
E000
7000
3800
0C00
0700
0380
0100
ENDCHAR
STARTCHAR equal
ENCODING 61
SWIDTH 549 0
DWIDTH 13 0
BBX 10 6 2 4
BITMAP
FFC0
FFC0
0000
0000
FFC0
FFC0
ENDCHAR
STARTCHAR greater
ENCODING 62
SWIDTH 549 0
DWIDTH 13 0
BBX 9 13 2 0
BITMAP
4000
E000
7000
1800
0E00
0700
0380
0700
0E00
1800
7000
E000
4000
ENDCHAR
STARTCHAR C
ENCODING 67
SWIDTH 549 0
DWIDTH 13 0
BBX 10 15 1 0
BITMAP
0F80
3FC0
7040
6000
E000
C000
C000
C000
C000
C000
E000
6000
7040
3FC0
1F80
ENDCHAR
STARTCHAR F
ENCODING 70
SWIDTH 549 0
DWIDTH 13 0
BBX 9 15 2 0
BITMAP
FF80
FF80
C000
C000
C000
C000
FF80
FF80
C000
C000
C000
C000
C000
C000
C000
ENDCHAR
STARTCHAR space.dup1
ENCODING 160
SWIDTH 549 0
DWIDTH 13 0
BBX 1 1 0 0
BITMAP
00
ENDCHAR
STARTCHAR degree
ENCODING 176
SWIDTH 549 0
DWIDTH 13 0
BBX 8 8 2 9
BITMAP
3C
7E
E7
C3
C3
E7
7E
3C
ENDCHAR
ENDFONT
