STARTFONT 2.1
FONT -FontForge-Consolas-Book-R-Normal--48-460-75-75-C-260-ISO10646-1
SIZE 46 75 75
FONTBOUNDINGBOX 24 35 1 -1
COMMENT "Generated by fontforge, http://fontforge.sourceforge.net"
COMMENT "(c) 2018 Microsoft Corporation. All rights reserved."
STARTPROPERTIES 36
FOUNDRY "FontForge"
FAMILY_NAME "Consolas"
WEIGHT_NAME "Book"
SLANT "R"
SETWIDTH_NAME "Normal"
ADD_STYLE_NAME ""
PIXEL_SIZE 48
POINT_SIZE 460
RESOLUTION_X 75
RESOLUTION_Y 75
SPACING "C"
AVERAGE_WIDTH 260
CHARSET_REGISTRY "ISO10646"
CHARSET_ENCODING "1"
FONTNAME_REGISTRY ""
CHARSET_COLLECTIONS "ASCII ISOLatin1Encoding ISO8859-2 ISO8859-5 ISO8859-7 ISO8859-9 ISO8859-4 ISO10646-1"
FONT_NAME "Consolas"
FACE_NAME "Consolas"
COPYRIGHT "(c) 2018 Microsoft Corporation. All rights reserved."
FONT_VERSION "7.00"
FONT_ASCENT 36
FONT_DESCENT 12
UNDERLINE_POSITION -8
UNDERLINE_THICKNESS 4
RAW_ASCENT 742
RAW_DESCENT 257
RELATIVE_WEIGHT 40
RELATIVE_SETWIDTH 50
SUPERSCRIPT_X 0
SUPERSCRIPT_Y 22
SUPERSCRIPT_SIZE 31
SUBSCRIPT_X 0
SUBSCRIPT_Y 6
SUBSCRIPT_SIZE 31
FIGURE_WIDTH 26
AVG_UPPERCASE_WIDTH 260
ENDPROPERTIES
CHARS 17
STARTCHAR period
ENCODING 46
SWIDTH 549 0
DWIDTH 26 0
BBX 8 8 9 -1
BITMAP
3C
7E
FF
FF
FF
FF
7E
3C
ENDCHAR
STARTCHAR zero
ENCODING 48
SWIDTH 549 0
DWIDTH 26 0
BBX 22 33 2 -1
BITMAP
00FE00
03FF80
07FFC0
0F87E0
1E01E0
3C00F0
3C00F0
780078
780078
7800F8
7001FC
F003FC
F007BC
F00F3C
F01E3C
F07C3C
F0F83C
F1E03C
F3C03C
F7803C
FF003C
FE003C
F80078
780078
780078
7C0078
3C00F0
3E01F0
1E01E0
1F87C0
0FFF80
07FF00
01FC00
ENDCHAR
STARTCHAR one
ENCODING 49
SWIDTH 549 0
DWIDTH 26 0
BBX 20 31 3 0
BITMAP
007C00
01FC00
03FC00
0F7C00
3E7C00
7C7C00
F87C00
607C00
407C00
007C00
007C00
007C00
007C00
007C00
007C00
007C00
007C00
007C00
007C00
007C00
007C00
007C00
007C00
007C00
007C00
007C00
007C00
007C00
7FFFF0
7FFFF0
7FFFF0
ENDCHAR
STARTCHAR two
ENCODING 50
SWIDTH 549 0
DWIDTH 26 0
BBX 20 32 3 0
BITMAP
07F000
1FFC00
7FFE00
F83F00
700F80
200F80
0007C0
0007C0
0007C0
0007C0
0007C0
0007C0
0007C0
000F80
000F80
001F80
003F00
003E00
007E00
00FC00
01F800
03F000
07E000
07C000
0F8000
1F0000
3E0000
7C0000
780000
FFFFF0
FFFFF0
FFFFF0
ENDCHAR
STARTCHAR three
ENCODING 51
SWIDTH 549 0
DWIDTH 26 0
BBX 19 33 4 -1
BITMAP
1FF000
7FFE00
7FFF00
601F80
000780
0007C0
0003C0
0003C0
0003C0
0003C0
0003C0
000780
000F00
003F00
0FFC00
0FFC00
0FFF00
001F80
0007C0
0003C0
0001E0
0001E0
0001E0
0001E0
0001E0
0001E0
0003C0
0007C0
000F80
C03F00
FFFE00
FFF800
3FE000
ENDCHAR
STARTCHAR four
ENCODING 52
SWIDTH 549 0
DWIDTH 26 0
BBX 24 31 1 0
BITMAP
0007E0
000FE0
000FE0
001FE0
003FE0
003DE0
0079E0
0079E0
00F1E0
01E1E0
01E1E0
03C1E0
07C1E0
0781E0
0F01E0
1F01E0
1E01E0
3C01E0
3C01E0
7801E0
F001E0
FFFFFF
FFFFFF
FFFFFF
0001E0
0001E0
0001E0
0001E0
0001E0
0001E0
0001E0
ENDCHAR
STARTCHAR five
ENCODING 53
SWIDTH 549 0
DWIDTH 26 0
BBX 19 32 4 -1
BITMAP
7FFF80
7FFF80
7FFF80
780000
780000
780000
780000
780000
780000
780000
780000
780000
7FF000
7FFE00
7FFF00
003F80
000FC0
0007C0
0007E0
0003E0
0003E0
0003E0
0003E0
0003E0
0007C0
0007C0
000F80
001F80
C07F00
FFFE00
FFF800
3FC000
ENDCHAR
STARTCHAR six
ENCODING 54
SWIDTH 549 0
DWIDTH 26 0
BBX 21 32 3 -1
BITMAP
001FE0
00FFE0
03FFE0
07F000
0F8000
1E0000
3E0000
3C0000
380000
780000
780000
700000
F0FE00
F7FF80
FFFFE0
FF03E0
F801F0
F000F0
F000F8
F00078
F00078
F00078
F00078
F80078
780078
7800F0
7C00F0
3E01E0
1F07C0
1FFF80
07FF00
01FC00
ENDCHAR
STARTCHAR seven
ENCODING 55
SWIDTH 549 0
DWIDTH 26 0
BBX 21 31 3 0
BITMAP
FFFFF8
FFFFF8
FFFFF8
000078
0000F0
0000F0
0001E0
0001E0
0003C0
0003C0
0007C0
000780
000F80
000F00
001F00
001E00
003E00
003C00
007C00
007800
00F800
00F000
01F000
01E000
03E000
03E000
07C000
07C000
0F8000
0F8000
0F0000
ENDCHAR
STARTCHAR eight
ENCODING 56
SWIDTH 549 0
DWIDTH 26 0
BBX 21 33 3 -1
BITMAP
01FE00
07FF80
1FFFC0
1F07E0
3C01E0
7801F0
7800F0
7800F0
7800F0
7800F0
7C00F0
3C01E0
3E03E0
1F07C0
0FCF80
07FF00
03FE00
07FF00
0F9FC0
3F07E0
3E03F0
7C01F0
F801F8
F800F8
F800F8
F800F8
F800F8
FC01F8
7C01F0
7F07E0
3FFFC0
0FFF80
03FC00
ENDCHAR
STARTCHAR nine
ENCODING 57
SWIDTH 549 0
DWIDTH 26 0
BBX 21 32 2 0
BITMAP
01FC00
07FF00
0FFF80
1F07C0
3C03E0
7801E0
7800F0
F000F0
F000F0
F00078
F00078
F00078
F00078
F00078
780078
7C00F8
3E07F8
3FFFF8
0FFF78
03F878
000070
0000F0
0000F0
0000F0
0001E0
0003E0
0007C0
000F80
007F00
3FFE00
3FF800
3FC000
ENDCHAR
STARTCHAR less
ENCODING 60
SWIDTH 549 0
DWIDTH 26 0
BBX 18 26 3 -1
BITMAP
000100
000380
000FC0
001F80
003F00
007E00
00F800
01F000
07E000
0FC000
1F8000
3F0000
7E0000
FE0000
3F0000
1F8000
0FC000
07E000
01F000
00F800
007E00
003F00
001F80
000FC0
000380
000100
ENDCHAR
STARTCHAR equal
ENCODING 61
SWIDTH 549 0
DWIDTH 26 0
BBX 20 11 3 7
BITMAP
FFFFF0
FFFFF0
FFFFF0
000000
000000
000000
000000
000000
FFFFF0
FFFFF0
FFFFF0
ENDCHAR
STARTCHAR greater
ENCODING 62
SWIDTH 549 0
DWIDTH 26 0
BBX 18 26 5 -1
BITMAP
200000
700000
F80000
7E0000
3F0000
1F8000
0FC000
03E000
01F800
00FC00
007E00
003F00
001F80
001FC0
003F00
007E00
00FC00
01F800
03E000
07C000
1F8000
3F0000
7E0000
F80000
700000
200000
ENDCHAR
STARTCHAR C
ENCODING 67
SWIDTH 549 0
DWIDTH 26 0
BBX 21 33 2 -1
BITMAP
003FC0
01FFF0
03FFF8
07E038
0F8008
1F0000
3E0000
3E0000
7C0000
7C0000
7C0000
780000
F80000
F80000
F80000
F80000
F80000
F80000
F80000
F80000
F80000
F80000
7C0000
7C0000
7C0000
7E0000
3E0000
3F0000
1F8008
0FE038
07FFF8
01FFF0
007F80
ENDCHAR
STARTCHAR F
ENCODING 70
SWIDTH 549 0
DWIDTH 26 0
BBX 17 31 5 0
BITMAP
FFFF80
FFFF80
FFFF80
F00000
F00000
F00000
F00000
F00000
F00000
F00000
F00000
F00000
F00000
F00000
FFFF00
FFFF00
FFFF00
F00000
F00000
F00000
F00000
F00000
F00000
F00000
F00000
F00000
F00000
F00000
F00000
F00000
F00000
ENDCHAR
STARTCHAR degree
ENCODING 176
SWIDTH 549 0
DWIDTH 26 0
BBX 17 16 5 18
BITMAP
03F000
1FFC00
3FFE00
7C1F00
780F00
F00780
F00780
F00780
F00780
F00780
F00F80
780F00
7C1F00
3FFE00
1FFC00
07E000
ENDCHAR
ENDFONT
